# xmcd
#
# Track frame offsets:
#	150
#	10650
#	25380
#	43105
#	50474
#	65641
#	78191
#	90522
#	106001
#	115567
#	129107
#	141460
#	149617
#	161742
#	179043
#	195946
#	208740
#	221295
#
# Disc length: 3105 seconds
#
# Revision: 0
# Processed by: cddbd v1.5.2PL0 Copyright (c) Steve Scherf et al.
# Submitted via: EasyCDDAExtractor 15.3.0.1
#
DISCID=f70c1f12
DTITLE=Country Masters - The Country Masters
DYEAR=1900
DGENRE=
TTITLE0=Gone Gone Gone
TTITLE1=I Miss A Lot Of Trains
TTITLE2=Someone Told My Story
TTITLE3=Island Ferry
TTITLE4=Don't Come Crying To Me
TTITLE5=La Page St. Pierre (Cheticamp Beach)
TTITLE6=Crazy Heart
TTITLE7=Deepening Snow
TTITLE8=Clarinet Polka
TTITLE9=Day You Said I Do
TTITLE10=Old Log Cabin For Sale
TTITLE11=Red Apple Rag
TTITLE12=She's No Angel
TTITLE13=Dim Lights Thick Smoke And Loud Loud Music
TTITLE14=I Wonder Where You Are Tonight
TTITLE15=I Do My Cryin' At Night
TTITLE16=Raz Ma Taz Polka
TTITLE17=Don Messer's Memorial Waltz
EXTD=
EXTT0=
EXTT1=
EXTT2=
EXTT3=
EXTT4=
EXTT5=
EXTT6=
EXTT7=
EXTT8=
EXTT9=
EXTT10=
EXTT11=
EXTT12=
EXTT13=
EXTT14=
EXTT15=
EXTT16=
EXTT17=
PLAYORDER=
